# xmcd
#
# Track frame offsets: 
#        150
#        12342
#        27153
#        38236
#        49236
#        60506
#        75190
#        88767
#        101604
#        113800
#        127322
#        137082
#        149753
#        163199
#        183062
#        199977
#        210872
#        225551
#        236398
#        248976
#        260521
#        272301
#        288802
#
# Disc length: 4129 seconds
#
# Revision: 1
# Processed by: cddbd v1.5.2PL0 Copyright (c) Steve Scherf et al.
# Submitted via: ExactAudioCopy v0.95b2
#
DISCID=3d101f17
DTITLE=Ty Karim - The Complete Ty Karim - Los Angeles' Soul Goddess
DYEAR=2008
DGENRE=Soul
TTITLE0=Lighten Up Baby
TTITLE1=Help Me Get That Feeling Back Again
TTITLE2=Ain't That Love Enough
TTITLE3=Only A Fool
TTITLE4=All At Once
TTITLE5=Lightin' Up
TTITLE6=Don't Let Me Be Lonely Tonight
TTITLE7=Wear Your Natural, Baby
TTITLE8=You Just Don't Know
TTITLE9=You Really Made It Good To Me
TTITLE10=I Ain't Lying
TTITLE11=Take It Easy Baby
TTITLE12=Don't Make Me Do Wrong
TTITLE13=Keep On Doin' Whatcha' Doin' Pt. 1
TTITLE14=Keep On Doin' Whatcha' Doin' Pt. 2
TTITLE15=Natural Do (Wear Your Natural, Baby)
TTITLE16=I'm Leavin' You
TTITLE17=All In Vain
TTITLE18=After Your Love Has Gone
TTITLE19=All At Once (alt. vocal)
TTITLE20=Lighten Up Baby (alt. vocal)
TTITLE21=If I Can't Stop You (I Can Slow You Down)
TTITLE22=It Takes Money
EXTD=
EXTT0=
EXTT1=
EXTT2=
EXTT3=
EXTT4=
EXTT5=
EXTT6=
EXTT7=
EXTT8=
EXTT9=
EXTT10=
EXTT11=
EXTT12=
EXTT13=
EXTT14=
EXTT15=
EXTT16=
EXTT17=
EXTT18=
EXTT19=
EXTT20=
EXTT21=
EXTT22=
PLAYORDER=
